<svg id="OnClick" xmlns="http://www.w3.org/2000/svg" viewBox="0 0 1382 1032"><defs><style>.cls-1{fill:#5c717d;}</style></defs><title>wolk-01</title><g id="Personal"><ellipse class="cls-1" cx="423.25" cy="313.18" rx="33.11" ry="19.74"/><polygon class="cls-1" points="419.76 318.34 399.98 319.16 377.26 346.27 419.76 318.34"/><ellipse class="cls-1" cx="438.97" cy="473.9" rx="33.11" ry="19.74"/><ellipse class="cls-1" cx="879.89" cy="623.07" rx="33.11" ry="19.74"/><polygon class="cls-1" points="877.61 632.6 857.83 633.41 853.32 659.31 877.61 632.6"/><path class="cls-1" d="M595.81,428.84a8.71,8.71,0,0,0-8.4-8.4H553.79a8.71,8.71,0,0,0-8.4,8.4v33.62a8.71,8.71,0,0,0,8.4,8.4H570.6V451.81h-6.16v-8.4h6.16v-3.28c0-5.65,4.24-10.73,9.46-10.73h6.79v8.4h-6.79a2.06,2.06,0,0,0-1.61,2.25v3.35h8.4v8.4h-8.4v19.05h9a8.71,8.71,0,0,0,8.4-8.4Zm0,0"/><circle class="cls-1" cx="460.99" cy="502.27" r="6.59"/><circle class="cls-1" cx="473.3" cy="514.59" r="4.55"/></g></svg>